*******************************************************************************
                          They Must Eat (2006) WEBRip
*******************************************************************************

-------------------------------------------------------------------------------
                              General Information
-------------------------------------------------------------------------------
Type.................: Movie



Video Format.........: AVI
Video Bitrate........: 1545
Resolution...........: 640 x 360
Color................: 8 bit
FPS..................: 24.000
Source...............: WEB 16:9
Original Format......: NTSC
Genre................: Horror
IMDb Rating..........: 3.9
Movie Information....: http://www.imdb.com/title/tt0897286/

-------------------------------------------------------------------------------
                               Post Information
-------------------------------------------------------------------------------
Posted by............: RadioResearch
Posted on............: 4/22/2013

-------------------------------------------------------------------------------
                                 Release Notes
-------------------------------------------------------------------------------
SEEDBOX SUPPORTED!!

Sanford Denton will forever be a socially inept loser. Always the target of 
bullies and approaching his 40th birthday, his only girlfriend of 3 years gives 
him the boot. Stuck in a dead-end job, no ambition, and on the edge of a 
breakdown... he begs his last living relative, Uncle Alistair, to take him in. 
Alistair keeps to himself and and is not very fond of his sheepish nephew. But, 
due to failing health, he accepts Sanford into his home... hoping to enlist him 
to take on the "family business" when he passes away. The "family business" is 
staving off a pack of ravenous ghouls that dwell in the thick woods surrounding 
the estate, and they crave human flesh. When Uncle Alistair passes away, Sanford 
is now in charge of the grisly task. However, Sanford decides to "train" the 
devilish creatures to do his bidding... exacting vengeance on those that have 
humiliated time and time again. When demons are hungry for blood... They Must 
Eat! 

Enjoy!

RadioResearch

General
Complete name                            : G:They Must East (2006) WEBRipThey 
Must Eat.avi
Format                                   : AVI
Format/Info                              : Audio Video Interleave
File size                                : 1.04 GiB
Duration                                 : 1h 36mn
Overall bit rate                         : 1 545 Kbps

Video
ID                                       : 0
Format                                   : mp43
Codec ID                                 : mp43
Duration                                 : 1h 36mn
Bit rate                                 : 1 405 Kbps
Width                                    : 640 pixels
Height                                   : 360 pixels
Display aspect ratio                     : 16:9
Frame rate                               : 24.000 fps
Bits/(Pixel*Frame)                       : 0.254
Stream size                              : 966 MiB (91%)

Audio
ID                                       : 1
Format                                   : MPEG Audio
Format version                           : Version 1
Format profile                           : Layer 3
Mode                                     : Joint stereo
Mode extension                           : MS Stereo
Codec ID                                 : 55
Codec ID/Hint                            : MP3
Duration                                 : 1h 36mn
Bit rate mode                            : Constant
Bit rate                                 : 128 Kbps
Channel(s)                               : 2 channels
Sampling rate                            : 44.1 KHz
Compression mode                         : Lossy
Stream size                              : 88.0 MiB (8%)
Alignment                                : Aligned on interleaves
Interleave, duration                     : 26 ms (0.63 video frame)
Writing library                          : LAME3.98.2




-------------------------------------------------------------------------------
Generated with Cool NFO Creator - http://fly.to/coolbeans
-------------------------------------------------------------------------------
